<?xml version="1.0" encoding="UTF-8" standalone="no"?>
<svg
   xmlns:dc="http://purl.org/dc/elements/1.1/"
   xmlns:cc="http://creativecommons.org/ns#"
   xmlns:rdf="http://www.w3.org/1999/02/22-rdf-syntax-ns#"
   xmlns:svg="http://www.w3.org/2000/svg"
   xmlns="http://www.w3.org/2000/svg"
   viewBox="0 0 80 170.66667"
   height="170.66667"
   width="80"
   xml:space="preserve"
   id="svg2"
   version="1.1"><metadata
     id="metadata8"><rdf:RDF><cc:Work
         rdf:about=""><dc:format>image/svg+xml</dc:format><dc:type
           rdf:resource="http://purl.org/dc/dcmitype/StillImage" /></cc:Work></rdf:RDF></metadata><defs
     id="defs6"><clipPath
       id="clipPath22"
       clipPathUnits="userSpaceOnUse"><path
         id="path20"
         d="M 0,128 H 60 V 0 H 0 Z" /></clipPath></defs><g
     transform="matrix(1.3333333,0,0,-1.3333333,0,170.66667)"
     id="g10"><g
       transform="translate(30.4072,49.3535)"
       id="g12"><path
         id="path14"
         style="fill:#7c8cc6;fill-opacity:1;fill-rule:evenodd;stroke:none"
         d="m 0,0 h -3.464 l 0.042,-15.801 3.465,-10e-4 z" /></g><g
       id="g16"><g
         clip-path="url(#clipPath22)"
         id="g18"><g
           transform="translate(9.8047,24.9287)"
           id="g24"><path
             id="path26"
             style="fill:#7c8cc6;fill-opacity:1;fill-rule:evenodd;stroke:none"
             d="M 0,0 C -0.092,10.435 8.291,18.967 18.727,19.059 29.159,19.15 37.692,10.768 37.785,0.334 Z" /></g><g
           transform="translate(28.6968,41.1201)"
           id="g28"><path
             id="path30"
             style="fill:#262261;fill-opacity:1;fill-rule:evenodd;stroke:none"
             d="m 0,0 c 4.943,0 8.95,-4.008 8.95,-8.95 0,-4.944 -4.007,-8.95 -8.95,-8.95 -4.942,0 -8.95,4.006 -8.95,8.95 C -8.95,-4.008 -4.942,0 0,0" /></g><g
           transform="translate(33.5996,32.1699)"
           id="g32"><path
             id="path34"
             style="fill:#fff100;fill-opacity:1;fill-rule:evenodd;stroke:none"
             d="m 0,0 c 0,-2.708 -2.195,-4.903 -4.903,-4.903 -2.708,0 -4.903,2.195 -4.903,4.903 0,2.708 2.195,4.903 4.903,4.903 C -2.195,4.903 0,2.708 0,0" /></g><g
           transform="translate(11.4897,24.9443)"
           id="g36"><path
             id="path38"
             style="fill:#d3d0e8;fill-opacity:1;fill-rule:evenodd;stroke:none"
             d="M 0,0 1.782,0.016 1.943,-18.197 0.161,-18.213 Z" /></g><g
           transform="translate(16.9209,24.9922)"
           id="g40"><path
             id="path42"
             style="fill:#d3d0e8;fill-opacity:1;fill-rule:evenodd;stroke:none"
             d="M 0,0 1.783,0.016 1.944,-18.197 0.161,-18.213 Z" /></g><g
           transform="translate(22.3545,25.04)"
           id="g44"><path
             id="path46"
             style="fill:#d3d0e8;fill-opacity:1;fill-rule:evenodd;stroke:none"
             d="M 0,0 1.782,0.016 1.943,-18.197 0.161,-18.213 Z" /></g><g
           transform="translate(27.7871,25.0879)"
           id="g48"><path
             id="path50"
             style="fill:#d3d0e8;fill-opacity:1;fill-rule:evenodd;stroke:none"
             d="m 0,0 1.784,0.016 0.16,-18.213 -1.783,-0.016 z" /></g><g
           transform="translate(33.2197,25.1357)"
           id="g52"><path
             id="path54"
             style="fill:#d3d0e8;fill-opacity:1;fill-rule:evenodd;stroke:none"
             d="M 0,0 1.783,0.016 1.944,-18.196 0.161,-18.213 Z" /></g><g
           transform="translate(38.6543,25.1836)"
           id="g56"><path
             id="path58"
             style="fill:#d3d0e8;fill-opacity:1;fill-rule:evenodd;stroke:none"
             d="M 0,0 1.781,0.016 1.942,-18.196 0.16,-18.212 Z" /></g><g
           transform="translate(44.083,25.2314)"
           id="g60"><path
             id="path62"
             style="fill:#d3d0e8;fill-opacity:1;fill-rule:evenodd;stroke:none"
             d="M 0,0 1.785,0.016 1.952,-18.873 0.167,-18.889 Z" /></g><g
           transform="translate(10.8159,26.6592)"
           id="g64"><path
             id="path66"
             style="fill:#e6e5f2;fill-opacity:1;fill-rule:evenodd;stroke:none"
             d="m 0,0 35.696,0.315 c 2.05,0.019 3.742,-1.643 3.761,-3.695 0.017,-2.05 -1.646,-3.74 -3.696,-3.759 L 0.066,-7.454 c -2.05,-0.018 -3.743,1.643 -3.761,3.693 C -3.713,-1.709 -2.05,-0.018 0,0" /></g><g
           transform="translate(11.0273,20.6172)"
           id="g68"><path
             id="path70"
             style="fill:#262261;fill-opacity:1;fill-rule:evenodd;stroke:none"
             d="m 0,0 c -3.392,0.181 -6.087,2.988 -6.087,6.426 0,3.436 2.695,6.245 6.087,6.427 z" /></g><g
           transform="translate(46.2988,20.6172)"
           id="g72"><path
             id="path74"
             style="fill:#262261;fill-opacity:1;fill-rule:evenodd;stroke:none"
             d="M 0,0 C 3.392,0.181 6.087,2.988 6.087,6.426 6.087,9.862 3.392,12.671 0,12.853 Z" /></g></g></g></g></svg>