<?xml version="1.0" encoding="UTF-8" standalone="no"?>
<svg
   xmlns:dc="http://purl.org/dc/elements/1.1/"
   xmlns:cc="http://creativecommons.org/ns#"
   xmlns:rdf="http://www.w3.org/1999/02/22-rdf-syntax-ns#"
   xmlns:svg="http://www.w3.org/2000/svg"
   xmlns="http://www.w3.org/2000/svg"
   viewBox="0 0 61.333332 53.333332"
   height="53.333332"
   width="61.333332"
   xml:space="preserve"
   id="svg2"
   version="1.1"><metadata
     id="metadata8"><rdf:RDF><cc:Work
         rdf:about=""><dc:format>image/svg+xml</dc:format><dc:type
           rdf:resource="http://purl.org/dc/dcmitype/StillImage" /></cc:Work></rdf:RDF></metadata><defs
     id="defs6"><clipPath
       id="clipPath42"
       clipPathUnits="userSpaceOnUse"><path
         id="path40"
         d="M 0,40 H 46 V 0 H 0 Z" /></clipPath></defs><g
     transform="matrix(1.3333333,0,0,-1.3333333,0,53.333333)"
     id="g10"><g
       transform="translate(21.9541,29.1299)"
       id="g12"><path
         id="path14"
         style="fill:none;stroke:#85cdb1;stroke-width:0.89999998;stroke-linecap:round;stroke-linejoin:miter;stroke-miterlimit:10;stroke-dasharray:none;stroke-opacity:1"
         d="M 0,0 -3.15,4.95" /></g><g
       transform="translate(17.7539,29.1299)"
       id="g16"><path
         id="path18"
         style="fill:none;stroke:#85cdb1;stroke-width:0.89999998;stroke-linecap:round;stroke-linejoin:miter;stroke-miterlimit:10;stroke-dasharray:none;stroke-opacity:1"
         d="M 0,0 -3.15,4.95" /></g><g
       transform="translate(13.5537,29.1299)"
       id="g20"><path
         id="path22"
         style="fill:none;stroke:#85cdb1;stroke-width:0.89999998;stroke-linecap:round;stroke-linejoin:miter;stroke-miterlimit:10;stroke-dasharray:none;stroke-opacity:1"
         d="M 0,0 -3.15,4.95" /></g><g
       transform="translate(21.9541,10.7676)"
       id="g24"><path
         id="path26"
         style="fill:none;stroke:#85cdb1;stroke-width:0.89999998;stroke-linecap:round;stroke-linejoin:miter;stroke-miterlimit:10;stroke-dasharray:none;stroke-opacity:1"
         d="M 0,0 -3.15,-4.95" /></g><g
       transform="translate(17.7539,10.7676)"
       id="g28"><path
         id="path30"
         style="fill:none;stroke:#85cdb1;stroke-width:0.89999998;stroke-linecap:round;stroke-linejoin:miter;stroke-miterlimit:10;stroke-dasharray:none;stroke-opacity:1"
         d="M 0,0 -3.15,-4.95" /></g><g
       transform="translate(13.5537,10.7676)"
       id="g32"><path
         id="path34"
         style="fill:none;stroke:#85cdb1;stroke-width:0.89999998;stroke-linecap:round;stroke-linejoin:miter;stroke-miterlimit:10;stroke-dasharray:none;stroke-opacity:1"
         d="M 0,0 -3.15,-4.95" /></g><g
       id="g36"><g
         clip-path="url(#clipPath42)"
         id="g38"><g
           transform="translate(29.6787,22.2422)"
           id="g44"><path
             id="path46"
             style="fill:none;stroke:#85cdb1;stroke-width:0.89999998;stroke-linecap:round;stroke-linejoin:miter;stroke-miterlimit:10;stroke-dasharray:none;stroke-opacity:1"
             d="M 0,0 C 0,0 9,2.7 9,9" /></g><g
           transform="translate(38.6787,30.1924)"
           id="g48"><path
             id="path50"
             style="fill:#a0d6bf;fill-opacity:1;fill-rule:evenodd;stroke:none"
             d="M 0,0 C -0.58,0 -1.05,0.47 -1.05,1.05 -1.05,1.63 -0.58,2.1 0,2.1 0.58,2.1 1.05,1.63 1.05,1.05 1.05,0.47 0.58,0 0,0" /></g><g
           transform="translate(29.6787,17.6543)"
           id="g52"><path
             id="path54"
             style="fill:none;stroke:#85cdb1;stroke-width:0.89999998;stroke-linecap:round;stroke-linejoin:miter;stroke-miterlimit:10;stroke-dasharray:none;stroke-opacity:1"
             d="M 0,0 C 0,0 9,-2.699 9,-9" /></g><g
           transform="translate(38.6787,9.7051)"
           id="g56"><path
             id="path58"
             style="fill:#a0d6bf;fill-opacity:1;fill-rule:evenodd;stroke:none"
             d="m 0,0 c -0.58,0 -1.05,-0.471 -1.05,-1.051 0,-0.579 0.47,-1.05 1.05,-1.05 0.58,0 1.05,0.471 1.05,1.05 C 1.05,-0.471 0.58,0 0,0" /></g><g
           transform="translate(23.6357,30.2153)"
           id="g60"><path
             id="path62"
             style="fill:#69c4a2;fill-opacity:1;fill-rule:evenodd;stroke:none"
             d="M 0,0 C 5.732,0.09 10.491,-4.526 10.582,-10.267 10.673,-15.999 6.062,-20.763 0.33,-20.854 Z" /></g><g
           transform="translate(7.3677,20.1172)"
           id="g64"><path
             id="path66"
             style="fill:#53bf98;fill-opacity:1;fill-rule:nonzero;stroke:none"
             d="m 0,0 -0.065,4.155 c -0.049,3.04 2.386,5.553 5.429,5.601 L 16.102,9.927 16.259,0 Z" /></g><g
           transform="translate(23.6357,30.2153)"
           id="g68"><path
             id="path70"
             style="fill:#75c8a9;fill-opacity:1;fill-rule:nonzero;stroke:none"
             d="m 0,0 -10.907,-0.173 c -3.127,-0.05 -5.645,-2.642 -5.595,-5.773 l 0.068,-4.321 H 0.163 Z m -0.332,-0.343 0.152,-9.586 h -15.922 l -0.063,3.989 c -0.047,2.946 2.314,5.382 5.263,5.43 l 10.57,0.167" /></g><g
           transform="translate(12.9673,9.3564)"
           id="g72"><path
             id="path74"
             style="fill:#53bf98;fill-opacity:1;fill-rule:nonzero;stroke:none"
             d="m 0,0 c -2.993,0 -5.467,2.435 -5.515,5.428 l -0.079,4.995 H 10.665 L 10.827,0.171 Z" /></g><g
           transform="translate(23.7983,19.9482)"
           id="g76"><path
             id="path78"
             style="fill:#75c8a9;fill-opacity:1;fill-rule:nonzero;stroke:none"
             d="m 0,0 h -16.597 l 0.082,-5.167 c 0.05,-3.1 2.599,-5.593 5.684,-5.593 h 0.091 l 10.907,0.173 z m -0.332,-0.337 0.157,-9.918 -10.57,-0.167 -0.086,-10e-4 c -2.901,0 -5.3,2.36 -5.346,5.261 l -0.077,4.825 h 15.922" /></g><g
           transform="translate(28.6055,24.8164)"
           id="g80"><path
             id="path82"
             style="fill:#a4a457;fill-opacity:1;fill-rule:evenodd;stroke:none"
             d="m 0,0 c 0,-0.676 0.548,-1.224 1.224,-1.224 0.682,0 1.23,0.548 1.23,1.224 0,0.685 -0.548,1.233 -1.23,1.233 C 0.548,1.233 0,0.685 0,0" /></g><g
           transform="translate(28.6055,24.8164)"
           id="g84"><path
             id="path86"
             style="fill:none;stroke:#ffffff;stroke-width:0.44999999;stroke-linecap:butt;stroke-linejoin:miter;stroke-miterlimit:10;stroke-dasharray:none;stroke-opacity:1"
             d="m 0,0 c 0,-0.676 0.548,-1.224 1.224,-1.224 0.682,0 1.23,0.548 1.23,1.224 0,0.685 -0.548,1.233 -1.23,1.233 C 0.548,1.233 0,0.685 0,0 Z" /></g><g
           transform="translate(28.6055,14.6162)"
           id="g88"><path
             id="path90"
             style="fill:#a4a457;fill-opacity:1;fill-rule:evenodd;stroke:none"
             d="m 0,0 c 0,-0.676 0.548,-1.224 1.224,-1.224 0.682,0 1.23,0.548 1.23,1.224 0,0.685 -0.548,1.233 -1.23,1.233 C 0.548,1.233 0,0.685 0,0" /></g><g
           transform="translate(28.6055,14.6162)"
           id="g92"><path
             id="path94"
             style="fill:none;stroke:#ffffff;stroke-width:0.44999999;stroke-linecap:butt;stroke-linejoin:miter;stroke-miterlimit:10;stroke-dasharray:none;stroke-opacity:1"
             d="m 0,0 c 0,-0.676 0.548,-1.224 1.224,-1.224 0.682,0 1.23,0.548 1.23,1.224 0,0.685 -0.548,1.233 -1.23,1.233 C 0.548,1.233 0,0.685 0,0 Z" /></g></g></g></g></svg>