<?xml version="1.0" encoding="UTF-8" standalone="no"?>
<svg
   xmlns:dc="http://purl.org/dc/elements/1.1/"
   xmlns:cc="http://creativecommons.org/ns#"
   xmlns:rdf="http://www.w3.org/1999/02/22-rdf-syntax-ns#"
   xmlns:svg="http://www.w3.org/2000/svg"
   xmlns="http://www.w3.org/2000/svg"
   viewBox="0 0 44.444401 87.111069"
   height="87.111069"
   width="44.444401"
   xml:space="preserve"
   id="svg2"
   version="1.1"><metadata
     id="metadata8"><rdf:RDF><cc:Work
         rdf:about=""><dc:format>image/svg+xml</dc:format><dc:type
           rdf:resource="http://purl.org/dc/dcmitype/StillImage" /></cc:Work></rdf:RDF></metadata><defs
     id="defs6"><clipPath
       id="clipPath18"
       clipPathUnits="userSpaceOnUse"><path
         id="path16"
         d="M 0,65.333 H 33.333 V 0 H 0 Z" /></clipPath></defs><g
     transform="matrix(1.3333333,0,0,-1.3333333,0,87.111067)"
     id="g10"><g
       id="g12"><g
         clip-path="url(#clipPath18)"
         id="g14"><g
           transform="translate(11.0246,16.1589)"
           id="g20"><path
             id="path22"
             style="fill:#bababa;fill-opacity:1;fill-rule:nonzero;stroke:none"
             d="m 0,0 v 24.73 c 0,1.043 0.853,1.895 1.895,1.895 1.042,0 1.895,-0.852 1.895,-1.895 V 0 Z" /></g><g
           transform="translate(19.8786,52.3859)"
           id="g24"><path
             id="path26"
             style="fill:#df4e65;fill-opacity:1;fill-rule:nonzero;stroke:none"
             d="m 0,0 c 0,-0.93 -0.755,-1.685 -1.685,-1.685 -0.93,0 -1.684,0.755 -1.684,1.685 0,0.931 0.754,1.685 1.684,1.685 C -0.755,1.685 0,0.931 0,0 m -4.548,1.011 v -17.519 h -2.948 c -1.297,0 -2.358,-1.061 -2.358,-2.358 0,-1.298 1.061,-2.358 2.358,-2.358 h 2.948 v -1.517 h -2.948 c -1.297,0 -2.358,-1.061 -2.358,-2.358 0,-1.297 1.061,-2.359 2.358,-2.359 h 2.948 v -0.841 c 0,-0.487 0.123,-0.946 0.34,-1.348 h 5.047 c 0.217,0.402 0.34,0.861 0.34,1.348 v 29.31 c 0,1.575 -1.288,2.864 -2.864,2.864 -1.575,0 -2.863,-1.289 -2.863,-2.864" /></g><g
           transform="translate(24.3425,22.9069)"
           id="g28"><path
             id="path30"
             style="fill:#dcdcdc;fill-opacity:1;fill-rule:nonzero;stroke:none"
             d="m 0,0 c 0,-0.278 -0.227,-0.505 -0.505,-0.505 h -8.433 c -0.279,0 -0.506,0.227 -0.506,0.505 0,0.279 0.227,0.506 0.506,0.506 h 8.433 C -0.227,0.506 0,0.279 0,0" /></g><g
           transform="translate(15.446,30.403)"
           id="g32"><path
             id="path34"
             style="fill:#444445;fill-opacity:1;fill-rule:nonzero;stroke:none"
             d="m 0,0 v 0 c 0,-0.694 -0.315,-1.263 -1.011,-1.263 h -1.768 c -0.695,0 -1.011,0.569 -1.011,1.263 0,0.695 0.316,1.264 1.011,1.264 h 1.768 C -0.315,1.264 0,0.695 0,0" /></g><g
           transform="translate(10.9191,16.0426)"
           id="g36"><path
             id="path38"
             style="fill:#bababa;fill-opacity:1;fill-rule:nonzero;stroke:none"
             d="m 0,0 c 0,0 0.189,-3.348 0.821,-4.043 0.632,-0.694 10.012,1.611 12.129,3.981 z" /></g><g
           transform="translate(24.3317,16.2116)"
           id="g40"><path
             id="path42"
             style="fill:#dcdcdc;fill-opacity:1;fill-rule:nonzero;stroke:none"
             d="m 0,0 c 0,-0.279 -0.226,-0.506 -0.505,-0.506 h -13.308 c -0.279,0 -0.505,0.227 -0.505,0.506 0,0.279 0.226,0.505 0.505,0.505 H -0.505 C -0.226,0.505 0,0.279 0,0" /></g><g
           transform="translate(19.9841,47.9118)"
           id="g44"><path
             id="path46"
             style="fill:#606060;fill-opacity:1;fill-rule:nonzero;stroke:none"
             d="m 0,0 v -21.541 c 0,-1.007 -0.824,-1.832 -1.832,-1.832 -1.008,0 -1.832,0.825 -1.832,1.832 V 0 c 0,1.007 0.824,1.832 1.831,1.832 C -0.825,1.832 0,1.007 0,0" /></g></g></g></g></svg>