<?xml version="1.0" encoding="UTF-8" standalone="no"?>
<svg
   xmlns:dc="http://purl.org/dc/elements/1.1/"
   xmlns:cc="http://creativecommons.org/ns#"
   xmlns:rdf="http://www.w3.org/1999/02/22-rdf-syntax-ns#"
   xmlns:svg="http://www.w3.org/2000/svg"
   xmlns="http://www.w3.org/2000/svg"
   viewBox="0 0 31.111067 42.666668"
   height="42.666668"
   width="31.111067"
   xml:space="preserve"
   id="svg2"
   version="1.1"><metadata
     id="metadata8"><rdf:RDF><cc:Work
         rdf:about=""><dc:format>image/svg+xml</dc:format><dc:type
           rdf:resource="http://purl.org/dc/dcmitype/StillImage" /></cc:Work></rdf:RDF></metadata><defs
     id="defs6"><clipPath
       id="clipPath18"
       clipPathUnits="userSpaceOnUse"><path
         id="path16"
         d="M 0,32 H 23.333 V 0 H 0 Z" /></clipPath></defs><g
     transform="matrix(1.3333333,0,0,-1.3333333,0,42.666667)"
     id="g10"><g
       id="g12"><g
         clip-path="url(#clipPath18)"
         id="g14"><g
           transform="translate(16.0612,21.0867)"
           id="g20"><path
             id="path22"
             style="fill:#f7941d;fill-opacity:1;fill-rule:nonzero;stroke:none"
             d="m 0,0 -7.794,-12.392 c 0.418,-0.713 0.9,-1.248 1.447,-1.604 0.547,-0.357 1.157,-0.535 1.828,-0.535 1.853,0 3.169,1.037 3.949,3.114 0.779,2.074 1.17,4.376 1.17,6.905 C 0.6,-2.949 0.4,-1.445 0,0 M -8.833,-9.605 -0.982,2.712 C -1.48,3.619 -2.018,4.231 -2.597,4.548 -3.177,4.866 -3.778,5.024 -4.403,5.024 -6.03,5.024 -7.269,4.119 -8.116,2.308 -8.966,0.497 -9.39,-1.8 -9.39,-4.583 c 0,-0.634 0.02,-1.317 0.059,-2.049 0.039,-0.733 0.205,-1.723 0.498,-2.973 m 4.439,16.9 c 2.587,0 4.56,-1.087 5.917,-3.259 1.358,-2.173 2.036,-5.1 2.036,-8.782 0,-3.691 -0.678,-6.623 -2.036,-8.796 -1.357,-2.174 -3.33,-3.26 -5.917,-3.26 -2.578,0 -4.548,1.086 -5.911,3.26 -1.362,2.173 -2.043,5.105 -2.043,8.796 0,3.682 0.681,6.609 2.043,8.782 1.363,2.172 3.333,3.259 5.911,3.259" /></g></g></g></g></svg>