<?xml version="1.0" encoding="UTF-8" standalone="no"?>
<svg
   xmlns:dc="http://purl.org/dc/elements/1.1/"
   xmlns:cc="http://creativecommons.org/ns#"
   xmlns:rdf="http://www.w3.org/1999/02/22-rdf-syntax-ns#"
   xmlns:svg="http://www.w3.org/2000/svg"
   xmlns="http://www.w3.org/2000/svg"
   viewBox="0 0 26.666668 26.666668"
   height="26.666668"
   width="26.666668"
   xml:space="preserve"
   id="svg2"
   version="1.1"><metadata
     id="metadata8"><rdf:RDF><cc:Work
         rdf:about=""><dc:format>image/svg+xml</dc:format><dc:type
           rdf:resource="http://purl.org/dc/dcmitype/StillImage" /></cc:Work></rdf:RDF></metadata><defs
     id="defs6"><clipPath
       id="clipPath18"
       clipPathUnits="userSpaceOnUse"><path
         id="path16"
         d="M 0,20 H 20 V 0 H 0 Z" /></clipPath></defs><g
     transform="matrix(1.3333333,0,0,-1.3333333,0,26.666667)"
     id="g10"><g
       id="g12"><g
         clip-path="url(#clipPath18)"
         id="g14"><g
           transform="translate(18.625,10)"
           id="g20"><path
             id="path22"
             style="fill:#231f20;fill-opacity:1;fill-rule:nonzero;stroke:none"
             d="m 0,0 c 0,4.756 -3.869,8.625 -8.625,8.625 -4.756,0 -8.625,-3.869 -8.625,-8.625 0,-4.756 3.869,-8.625 8.625,-8.625 C -3.869,-8.625 0,-4.756 0,0" /></g><g
           transform="translate(17.375,10)"
           id="g24"><path
             id="path26"
             style="fill:#fff200;fill-opacity:1;fill-rule:nonzero;stroke:none"
             d="m 0,0 c 0,-4.066 -3.309,-7.375 -7.375,-7.375 -4.066,0 -7.375,3.309 -7.375,7.375 0,4.066 3.309,7.375 7.375,7.375 C -3.309,7.375 0,4.066 0,0" /></g><g
           transform="translate(6.3462,13.061)"
           id="g28"><path
             id="path30"
             style="fill:#231f20;fill-opacity:1;fill-rule:nonzero;stroke:none"
             d="M 0,0 H -0.604 C -0.523,0.812 0.164,1.448 0.997,1.448 1.831,1.448 2.518,0.812 2.599,0 H 1.995 C 1.917,0.482 1.501,0.852 0.997,0.852 0.494,0.852 0.078,0.482 0,0" /></g><g
           transform="translate(12.0937,13.9131)"
           id="g32"><path
             id="path34"
             style="fill:#231f20;fill-opacity:1;fill-rule:nonzero;stroke:none"
             d="M 0,0 C 0.503,0 0.919,-0.37 0.997,-0.852 H 1.601 C 1.52,-0.041 0.833,0.596 0,0.596 c -0.833,0 -1.521,-0.637 -1.602,-1.448 h 0.605 C -0.92,-0.37 -0.504,0 0,0" /></g><g
           transform="translate(14.1621,7.9307)"
           id="g36"><path
             id="path38"
             style="fill:#231f20;fill-opacity:1;fill-rule:nonzero;stroke:none"
             d="M 0,0 C 0.07,0.155 0.002,0.338 -0.152,0.408 -0.307,0.479 -0.49,0.41 -0.561,0.255 c -0.685,-1.507 -2.195,-2.481 -3.845,-2.481 -1.65,0 -3.16,0.974 -3.845,2.481 C -8.321,0.41 -8.504,0.479 -8.659,0.408 -8.814,0.338 -8.882,0.155 -8.812,0 c 0.785,-1.727 2.514,-2.842 4.406,-2.842 1.891,0 3.621,1.115 4.406,2.842" /></g><g
           transform="translate(7.269,11.5767)"
           id="g40"><path
             id="path42"
             style="fill:#231f20;fill-opacity:1;fill-rule:nonzero;stroke:none"
             d="m 0,0 c -0.439,0 -0.796,-0.356 -0.796,-0.796 0,-0.44 0.357,-0.796 0.796,-0.796 0.44,0 0.796,0.356 0.796,0.796 C 0.796,-0.356 0.44,0 0,0" /></g><g
           transform="translate(12.2432,11.5767)"
           id="g44"><path
             id="path46"
             style="fill:#231f20;fill-opacity:1;fill-rule:nonzero;stroke:none"
             d="m 0,0 c -0.439,0 -0.796,-0.356 -0.796,-0.796 0,-0.44 0.357,-0.796 0.796,-0.796 0.44,0 0.797,0.356 0.797,0.796 C 0.797,-0.356 0.44,0 0,0" /></g></g></g></g></svg>